# xmcd
#
# Track frame offsets: 
#        150
#        16104
#        29859
#        45273
#        60918
#        75071
#        88983
#        103247
#        116462
#        133181
#        145831
#        160406
#        174066
#        188704
#
# Disc length: 2677 seconds
#
# Revision: 0
# Processed by: cddbd v1.5.2PL0 Copyright (c) Steve Scherf et al.
# Submitted via: ExactAudioCopy v0.99pb5
#
DISCID=a90a730e
DTITLE=ทูล ทองใจ - Boxset แผ่น 5 นางครวญ
DYEAR=2009
DGENRE=Vocal
TTITLE0=นางรอง
TTITLE1=นางหงส์
TTITLE2=นางครวญ
TTITLE3=นางอาย
TTITLE4=สาส์นรักฉบับล่า
TTITLE5=กอดหมอนนอนเพ้อ
TTITLE6=ในฝัน
TTITLE7=นางห้าม
TTITLE8=นางนอน
TTITLE9=เทพธิดาหลงฟ้า
TTITLE10=เรือนหอสีฟ้า
TTITLE11=ยังรักเธอคนเดียว
TTITLE12=กลับมาเถิดดวงใจ
TTITLE13=แว่วเสียงชะนี
EXTD=
EXTT0=
EXTT1=
EXTT2=
EXTT3=
EXTT4=
EXTT5=
EXTT6=
EXTT7=
EXTT8=
EXTT9=
EXTT10=
EXTT11=
EXTT12=
EXTT13=
PLAYORDER=
